<svg width="22" height="24" viewBox="0 0 22 24" fill="none" xmlns="http://www.w3.org/2000/svg">
<path fill-rule="evenodd" clip-rule="evenodd" d="M0.915211 0.366624C0.652017 0.657463 0.5 1.10187 0.5 1.68354V22.3145C0.5 22.8962 0.652017 23.3406 0.924287 23.6198L0.994623 23.6826L12.2666 12.1235V11.8652L0.985548 0.303802L0.915211 0.366624Z" fill="url(#paint0_linear_1718_26045)"/>
<path fill-rule="evenodd" clip-rule="evenodd" d="M16.0165 15.9889L12.2568 12.1336V11.8637L16.0165 8.0083L16.0981 8.05949L20.5452 10.6514C21.8181 11.3867 21.8181 12.6012 20.5452 13.3458L16.0981 15.9377L16.0165 15.9889Z" fill="url(#paint1_linear_1718_26045)"/>
<path fill-rule="evenodd" clip-rule="evenodd" d="M16.0986 15.9375L12.2573 11.9984L0.915039 23.6296C1.33025 24.0856 2.02681 24.1368 2.80505 23.6924L16.0986 15.9375Z" fill="url(#paint2_linear_1718_26045)"/>
<path fill-rule="evenodd" clip-rule="evenodd" d="M16.0986 8.05932L2.80505 0.316018C2.02681 -0.140018 1.32798 -0.0771965 0.915039 0.378839L12.2573 11.9984L16.0986 8.05932Z" fill="url(#paint3_linear_1718_26045)"/>
<path opacity="0.2" fill-rule="evenodd" clip-rule="evenodd" d="M16.0167 15.8539L2.81385 23.546C2.07644 23.9811 1.41845 23.9508 0.994165 23.5553L0.923828 23.6274L0.994165 23.6903C1.41845 24.0835 2.07644 24.116 2.81385 23.6809L16.1075 15.9377L16.0167 15.8539Z" fill="white"/>
<path opacity="0.12" fill-rule="evenodd" clip-rule="evenodd" d="M20.545 13.2106L16.0049 15.8537L16.0866 15.9375L20.5336 13.3455C21.1712 12.9732 21.4843 12.4846 21.4843 11.9984C21.4457 12.4451 21.1213 12.8685 20.545 13.2106Z" fill="white"/>
<path opacity="0.25" fill-rule="evenodd" clip-rule="evenodd" d="M2.80522 0.451247L20.5459 10.7865C21.1222 11.1192 21.4466 11.5543 21.4965 11.9987C21.4965 11.5124 21.1834 11.0238 20.5459 10.6516L2.80522 0.316298C1.53236 -0.430577 0.5 0.192982 0.5 1.68441V1.81935C0.5 0.325605 1.53236 -0.286321 2.80522 0.451247Z" fill="#232121"/>
<defs>
<linearGradient id="paint0_linear_1718_26045" x1="11.2555" y1="1.46096" x2="-6.85915" y2="6.16773" gradientUnits="userSpaceOnUse">
<stop stop-color="#00A0FF"/>
<stop offset="0.00657" stop-color="#00A1FF"/>
<stop offset="0.2601" stop-color="#00BEFF"/>
<stop offset="0.5122" stop-color="#00D2FF"/>
<stop offset="0.7604" stop-color="#00DFFF"/>
<stop offset="1" stop-color="#00E3FF"/>
</linearGradient>
<linearGradient id="paint1_linear_1718_26045" x1="22.2052" y1="11.9986" x2="0.189882" y2="11.9986" gradientUnits="userSpaceOnUse">
<stop stop-color="#FFE000"/>
<stop offset="0.4087" stop-color="#FFBD00"/>
<stop offset="0.7754" stop-color="#FFA500"/>
<stop offset="1" stop-color="#FF9C00"/>
</linearGradient>
<linearGradient id="paint2_linear_1718_26045" x1="14.0099" y1="14.1418" x2="-1.03059" y2="38.8274" gradientUnits="userSpaceOnUse">
<stop stop-color="#FF3A44"/>
<stop offset="1" stop-color="#C31162"/>
</linearGradient>
<linearGradient id="paint3_linear_1718_26045" x1="-1.94108" y1="-6.49498" x2="4.76922" y2="4.5302" gradientUnits="userSpaceOnUse">
<stop stop-color="#32A071"/>
<stop offset="0.0685" stop-color="#2DA771"/>
<stop offset="0.4762" stop-color="#15CF74"/>
<stop offset="0.8009" stop-color="#06E775"/>
<stop offset="1" stop-color="#00F076"/>
</linearGradient>
</defs>
</svg>
