<svg width="22" height="24" viewBox="0 0 22 24" fill="none" xmlns="http://www.w3.org/2000/svg">
<path d="M18.0397 12.7629C18.0525 11.843 18.3153 10.941 18.8037 10.1409C19.292 9.34082 19.9902 8.66857 20.833 8.18674C20.2976 7.47567 19.5912 6.89049 18.77 6.47768C17.9487 6.06487 17.0353 5.83579 16.1022 5.80864C14.1117 5.61438 12.1821 6.91612 11.1678 6.91612C10.1338 6.91612 8.57216 5.82793 6.8905 5.8601C5.80275 5.89278 4.74265 6.18689 3.81349 6.71379C2.88434 7.24068 2.11781 7.98239 1.5886 8.86663C-0.703832 12.5571 1.00612 17.9809 3.20207 20.964C4.30076 22.4247 5.58481 24.0564 7.26495 23.9985C8.90908 23.9351 9.52313 23.0237 11.5077 23.0237C13.4739 23.0237 14.05 23.9985 15.7643 23.9617C17.5285 23.9351 18.64 22.4945 19.7002 21.0199C20.4896 19.9791 21.097 18.8288 21.5 17.6115C20.475 17.2084 19.6004 16.5337 18.985 15.6715C18.3697 14.8093 18.0409 13.7977 18.0397 12.7629Z" fill="#FFFFFE"/>
<path d="M14.8019 3.8472C15.7638 2.77347 16.2377 1.39338 16.1229 0C14.6533 0.143523 13.2958 0.796614 12.3209 1.82914C11.8442 2.33356 11.4791 2.92039 11.2465 3.55608C11.0139 4.19177 10.9183 4.86385 10.9652 5.53391C11.7003 5.54095 12.4275 5.3928 13.0921 5.10064C13.7566 4.80847 14.3412 4.3799 14.8019 3.8472Z" fill="#FFFFFE"/>
</svg>
