<svg width="142" height="37" viewBox="0 0 142 37" fill="none" xmlns="http://www.w3.org/2000/svg">
<path d="M55.6912 15.4969V17.5233H47.3018V15.4969H55.6912ZM49.8146 31.0599V13.3489C49.8146 12.4573 50.024 11.7142 50.4428 11.1198C50.8615 10.5254 51.4053 10.0796 52.074 9.78237C52.7428 9.48516 53.4486 9.33655 54.1917 9.33655C54.7793 9.33655 55.2589 9.38384 55.6304 9.4784C56.0019 9.57297 56.2789 9.66078 56.4613 9.74184L55.7723 11.8088C55.6507 11.7683 55.4818 11.7176 55.2657 11.6568C55.0563 11.596 54.7793 11.5656 54.4348 11.5656C53.6445 11.5656 53.0737 11.7649 52.7225 12.1634C52.378 12.562 52.2057 13.1462 52.2057 13.9163V31.0599H49.8146ZM59.0424 31.0599V15.4969H61.4336V31.0599H59.0424ZM60.2583 12.9031C59.7922 12.9031 59.3903 12.7443 59.0526 12.4269C58.7216 12.1094 58.5561 11.7277 58.5561 11.2819C58.5561 10.8361 58.7216 10.4545 59.0526 10.137C59.3903 9.81952 59.7922 9.66078 60.2583 9.66078C60.7244 9.66078 61.1229 9.81952 61.4539 10.137C61.7916 10.4545 61.9605 10.8361 61.9605 11.2819C61.9605 11.7277 61.7916 12.1094 61.4539 12.4269C61.1229 12.7443 60.7244 12.9031 60.2583 12.9031ZM72.5815 15.4969V17.5233H64.5163V15.4969H72.5815ZM66.867 11.7683H69.2582V26.6018C69.2582 27.2772 69.3561 27.7838 69.552 28.1216C69.7546 28.4526 70.0113 28.6755 70.322 28.7903C70.6395 28.8984 70.9739 28.9524 71.3251 28.9524C71.5886 28.9524 71.8047 28.9389 71.9736 28.9119C72.1425 28.8781 72.2776 28.8511 72.3789 28.8308L72.8652 30.9788C72.7031 31.0396 72.4768 31.1004 72.1864 31.1612C71.8959 31.2288 71.5278 31.2625 71.082 31.2625C70.4065 31.2625 69.7445 31.1173 69.0961 30.8269C68.4544 30.5364 67.9207 30.094 67.4952 29.4996C67.0764 28.9051 66.867 28.1554 66.867 27.2502V11.7683ZM87.8507 15.4969C87.7291 14.4702 87.236 13.6731 86.3714 13.1057C85.5068 12.5383 84.4463 12.2546 83.1899 12.2546C82.2712 12.2546 81.4674 12.4032 80.7784 12.7004C80.0962 12.9976 79.5626 13.4063 79.1776 13.9264C78.7993 14.4465 78.6102 15.0376 78.6102 15.6995C78.6102 16.2534 78.7419 16.7297 79.0053 17.1282C79.2755 17.52 79.62 17.8476 80.0388 18.111C80.4576 18.3677 80.8966 18.5805 81.356 18.7493C81.8153 18.9114 82.2375 19.0432 82.6225 19.1445L84.73 19.7119C85.2704 19.8537 85.8715 20.0496 86.5335 20.2996C87.2022 20.5495 87.8406 20.8906 88.4485 21.3229C89.0632 21.7485 89.5698 22.2956 89.9683 22.9643C90.3668 23.633 90.5661 24.4537 90.5661 25.4264C90.5661 26.5477 90.2723 27.5609 89.6846 28.4661C89.1037 29.3712 88.2526 30.0906 87.1313 30.6242C86.0168 31.1579 84.6624 31.4247 83.0683 31.4247C81.5823 31.4247 80.2955 31.1849 79.208 30.7053C78.1272 30.2257 77.2761 29.557 76.6546 28.6991C76.04 27.8413 75.6921 26.8449 75.611 25.7101H78.2049C78.2724 26.4937 78.5359 27.1421 78.9952 27.6555C79.4613 28.1621 80.0489 28.5404 80.7582 28.7903C81.4742 29.0335 82.2442 29.1551 83.0683 29.1551C84.0275 29.1551 84.8887 28.9997 85.652 28.689C86.4153 28.3715 87.0198 27.9324 87.4657 27.3718C87.9115 26.8044 88.1344 26.1424 88.1344 25.3859C88.1344 24.6969 87.9419 24.1363 87.5569 23.704C87.1718 23.2717 86.6652 22.9204 86.037 22.6502C85.4088 22.38 84.73 22.1436 84.0005 21.941L81.4472 21.2114C79.826 20.7454 78.5426 20.08 77.5969 19.2154C76.6513 18.3508 76.1784 17.2194 76.1784 15.8211C76.1784 14.6593 76.4925 13.6461 77.1207 12.7815C77.7557 11.9101 78.6068 11.2346 79.674 10.7551C80.748 10.2687 81.947 10.0255 83.271 10.0255C84.6084 10.0255 85.7972 10.2653 86.8375 10.7449C87.8777 11.2178 88.7018 11.8662 89.3097 12.6903C89.9244 13.5144 90.2486 14.4499 90.2824 15.4969H87.8507ZM101.142 15.4969V17.5233H93.0763V15.4969H101.142ZM95.427 11.7683H97.8182V26.6018C97.8182 27.2772 97.9161 27.7838 98.112 28.1216C98.3147 28.4526 98.5714 28.6755 98.8821 28.7903C99.1996 28.8984 99.5339 28.9524 99.8852 28.9524C100.149 28.9524 100.365 28.9389 100.534 28.9119C100.702 28.8781 100.838 28.8511 100.939 28.8308L101.425 30.9788C101.263 31.0396 101.037 31.1004 100.746 31.1612C100.456 31.2288 100.088 31.2625 99.642 31.2625C98.9665 31.2625 98.3045 31.1173 97.6561 30.8269C97.0144 30.5364 96.4808 30.094 96.0552 29.4996C95.6364 28.9051 95.427 28.1554 95.427 27.2502V11.7683ZM106.279 36.896C105.873 36.896 105.512 36.8623 105.194 36.7947C104.877 36.7339 104.657 36.6731 104.536 36.6123L105.144 34.5048C105.725 34.6534 106.238 34.7075 106.684 34.667C107.13 34.6264 107.525 34.4272 107.869 34.0692C108.221 33.7179 108.541 33.1471 108.832 32.3568L109.278 31.141L103.523 15.4969H106.116L110.412 27.8987H110.575L114.871 15.4969H117.464L110.858 33.3295C110.561 34.1333 110.193 34.7987 109.754 35.3255C109.315 35.8592 108.805 36.2543 108.224 36.511C107.65 36.7677 107.001 36.896 106.279 36.896ZM123.012 10.3092V31.0599H120.621V10.3092H123.012ZM131.971 31.4247C130.985 31.4247 130.09 31.2389 129.286 30.8674C128.482 30.4891 127.844 29.9454 127.371 29.2361C126.898 28.5201 126.662 27.6555 126.662 26.6423C126.662 25.7507 126.838 25.0279 127.189 24.474C127.54 23.9134 128.01 23.4743 128.597 23.1568C129.185 22.8393 129.833 22.6029 130.543 22.4476C131.259 22.2855 131.978 22.1571 132.701 22.0625C133.646 21.941 134.413 21.8498 135.001 21.789C135.595 21.7214 136.027 21.61 136.298 21.4546C136.575 21.2993 136.713 21.0291 136.713 20.644V20.563C136.713 19.5633 136.439 18.7865 135.892 18.2326C135.352 17.6787 134.531 17.4018 133.43 17.4018C132.289 17.4018 131.394 17.6517 130.745 18.1515C130.097 18.6514 129.641 19.185 129.377 19.7524L127.108 18.9418C127.513 17.9962 128.053 17.2599 128.729 16.733C129.411 16.1994 130.154 15.8279 130.958 15.6185C131.769 15.4023 132.566 15.2943 133.349 15.2943C133.849 15.2943 134.423 15.3551 135.072 15.4766C135.727 15.5915 136.358 15.8313 136.966 16.196C137.581 16.5608 138.091 17.1113 138.496 17.8476C138.902 18.5838 139.104 19.57 139.104 20.8062V31.0599H136.713V28.9524H136.591C136.429 29.2902 136.159 29.6515 135.781 30.0366C135.403 30.4216 134.899 30.7492 134.271 31.0194C133.643 31.2896 132.876 31.4247 131.971 31.4247ZM132.336 29.2766C133.282 29.2766 134.079 29.0909 134.727 28.7194C135.382 28.3479 135.875 27.8683 136.206 27.2806C136.544 26.6929 136.713 26.0749 136.713 25.4264V23.2379C136.612 23.3595 136.389 23.4709 136.044 23.5722C135.707 23.6668 135.315 23.7512 134.869 23.8255C134.43 23.8931 134.001 23.9539 133.582 24.0079C133.17 24.0552 132.836 24.0957 132.579 24.1295C131.958 24.2106 131.377 24.3423 130.836 24.5247C130.303 24.7003 129.87 24.9671 129.539 25.3251C129.215 25.6764 129.053 26.1559 129.053 26.7639C129.053 27.5947 129.36 28.2229 129.975 28.6485C130.597 29.0672 131.384 29.2766 132.336 29.2766Z" fill="#6E775A"/>
<path fill-rule="evenodd" clip-rule="evenodd" d="M13.8929 0H17.5813C8.18823 2.18114 4.40148 11.1871 4.08182 20.4277L4.03264 32.8344C1.54913 30.4422 0 27.1353 0 23.5235V13.251C0 5.9571 6.24568 0 13.8929 0ZM40.5723 7.43464C41.0641 8.37277 41.4329 9.3578 41.6788 10.4132L23.5565 10.3428C13.1307 10.3194 10.8193 28.777 23.5565 28.8708L30.1465 28.9177C32.4333 29.293 32.4333 31.6148 30.0973 31.6148L12.2209 31.6852L12.2946 18.3404C13.4012 11.7735 16.942 7.34083 26.1138 7.36428L40.5723 7.43464ZM41.9985 17.9886V23.5235C41.9985 26.033 41.2362 28.3783 39.9576 30.3953C40.0805 25.7515 37.3265 20.9906 31.5726 20.8967L24.3434 20.8029C22.7943 20.7795 22.8926 18.0589 24.8106 18.0589L41.9985 17.9886Z" fill="#A88A68"/>
</svg>
