<svg width="142" height="37" viewBox="0 0 142 37" fill="none" xmlns="http://www.w3.org/2000/svg">
<path d="M55.6912 15.4971V17.5235H47.3018V15.4971H55.6912ZM49.8146 31.0601V13.349C49.8146 12.4574 50.024 11.7144 50.4428 11.12C50.8615 10.5255 51.4053 10.0797 52.074 9.78252C52.7428 9.48531 53.4486 9.33671 54.1917 9.33671C54.7793 9.33671 55.2589 9.38399 55.6304 9.47856C56.0019 9.57312 56.2789 9.66093 56.4613 9.74199L55.7723 11.809C55.6507 11.7684 55.4818 11.7178 55.2657 11.657C55.0563 11.5962 54.7793 11.5658 54.4348 11.5658C53.6445 11.5658 53.0737 11.765 52.7225 12.1636C52.378 12.5621 52.2057 13.1464 52.2057 13.9164V31.0601H49.8146ZM59.0424 31.0601V15.4971H61.4336V31.0601H59.0424ZM60.2583 12.9032C59.7922 12.9032 59.3903 12.7445 59.0526 12.427C58.7216 12.1095 58.5561 11.7279 58.5561 11.2821C58.5561 10.8363 58.7216 10.4546 59.0526 10.1371C59.3903 9.81967 59.7922 9.66094 60.2583 9.66094C60.7244 9.66094 61.1229 9.81967 61.4539 10.1371C61.7916 10.4546 61.9605 10.8363 61.9605 11.2821C61.9605 11.7279 61.7916 12.1095 61.4539 12.427C61.1229 12.7445 60.7244 12.9032 60.2583 12.9032ZM72.5815 15.4971V17.5235H64.5163V15.4971H72.5815ZM66.867 11.7684H69.2582V26.6019C69.2582 27.2774 69.3561 27.784 69.552 28.1217C69.7546 28.4527 70.0113 28.6756 70.322 28.7905C70.6395 28.8985 70.9739 28.9526 71.3251 28.9526C71.5886 28.9526 71.8047 28.9391 71.9736 28.912C72.1425 28.8783 72.2776 28.8512 72.3789 28.831L72.8652 30.979C72.7031 31.0398 72.4768 31.1006 72.1864 31.1614C71.8959 31.2289 71.5278 31.2627 71.082 31.2627C70.4065 31.2627 69.7445 31.1175 69.0961 30.827C68.4544 30.5366 67.9207 30.0941 67.4952 29.4997C67.0764 28.9053 66.867 28.1555 66.867 27.2504V11.7684ZM87.8507 15.4971C87.7291 14.4703 87.236 13.6733 86.3714 13.1059C85.5068 12.5385 84.4463 12.2548 83.1899 12.2548C82.2712 12.2548 81.4674 12.4034 80.7784 12.7006C80.0962 12.9978 79.5626 13.4065 79.1776 13.9266C78.7993 14.4467 78.6102 15.0377 78.6102 15.6997C78.6102 16.2536 78.7419 16.7298 79.0053 17.1283C79.2755 17.5201 79.62 17.8477 80.0388 18.1112C80.4576 18.3678 80.8966 18.5806 81.356 18.7495C81.8153 18.9116 82.2375 19.0433 82.6225 19.1446L84.73 19.712C85.2704 19.8539 85.8715 20.0498 86.5335 20.2997C87.2022 20.5496 87.8406 20.8907 88.4485 21.3231C89.0632 21.7486 89.5698 22.2957 89.9683 22.9645C90.3668 23.6332 90.5661 24.4539 90.5661 25.4266C90.5661 26.5479 90.2723 27.5611 89.6846 28.4662C89.1037 29.3714 88.2526 30.0907 87.1313 30.6244C86.0168 31.158 84.6624 31.4248 83.0683 31.4248C81.5823 31.4248 80.2955 31.185 79.208 30.7054C78.1272 30.2258 77.2761 29.5571 76.6546 28.6993C76.04 27.8414 75.6921 26.8451 75.611 25.7103H78.2049C78.2724 26.4938 78.5359 27.1423 78.9952 27.6557C79.4613 28.1623 80.0489 28.5405 80.7582 28.7905C81.4742 29.0336 82.2442 29.1552 83.0683 29.1552C84.0275 29.1552 84.8887 28.9999 85.652 28.6891C86.4153 28.3717 87.0198 27.9326 87.4657 27.372C87.9115 26.8046 88.1344 26.1426 88.1344 25.386C88.1344 24.6971 87.9419 24.1364 87.5569 23.7041C87.1718 23.2718 86.6652 22.9206 86.037 22.6504C85.4088 22.3802 84.73 22.1438 84.0005 21.9411L81.4472 21.2116C79.826 20.7455 78.5426 20.0802 77.5969 19.2156C76.6513 18.351 76.1784 17.2195 76.1784 15.8213C76.1784 14.6595 76.4925 13.6463 77.1207 12.7816C77.7557 11.9103 78.6068 11.2348 79.674 10.7552C80.748 10.2689 81.947 10.0257 83.271 10.0257C84.6084 10.0257 85.7972 10.2655 86.8375 10.7451C87.8777 11.2179 88.7018 11.8664 89.3097 12.6905C89.9244 13.5145 90.2486 14.4501 90.2824 15.4971H87.8507ZM101.142 15.4971V17.5235H93.0763V15.4971H101.142ZM95.427 11.7684H97.8182V26.6019C97.8182 27.2774 97.9161 27.784 98.112 28.1217C98.3147 28.4527 98.5714 28.6756 98.8821 28.7905C99.1996 28.8985 99.5339 28.9526 99.8852 28.9526C100.149 28.9526 100.365 28.9391 100.534 28.912C100.702 28.8783 100.838 28.8512 100.939 28.831L101.425 30.979C101.263 31.0398 101.037 31.1006 100.746 31.1614C100.456 31.2289 100.088 31.2627 99.642 31.2627C98.9665 31.2627 98.3045 31.1175 97.6561 30.827C97.0144 30.5366 96.4808 30.0941 96.0552 29.4997C95.6364 28.9053 95.427 28.1555 95.427 27.2504V11.7684ZM106.279 36.8962C105.873 36.8962 105.512 36.8624 105.194 36.7949C104.877 36.7341 104.657 36.6733 104.536 36.6125L105.144 34.505C105.725 34.6536 106.238 34.7076 106.684 34.6671C107.13 34.6266 107.525 34.4273 107.869 34.0693C108.221 33.7181 108.541 33.1473 108.832 32.357L109.278 31.1411L103.523 15.4971H106.116L110.412 27.8988H110.575L114.871 15.4971H117.464L110.858 33.3297C110.561 34.1335 110.193 34.7988 109.754 35.3257C109.315 35.8593 108.805 36.2545 108.224 36.5112C107.65 36.7678 107.001 36.8962 106.279 36.8962ZM123.012 10.3094V31.0601H120.621V10.3094H123.012ZM131.971 31.4248C130.985 31.4248 130.09 31.2391 129.286 30.8675C128.482 30.4893 127.844 29.9455 127.371 29.2363C126.898 28.5203 126.662 27.6557 126.662 26.6424C126.662 25.7508 126.838 25.028 127.189 24.4742C127.54 23.9135 128.01 23.4744 128.597 23.157C129.185 22.8395 129.833 22.6031 130.543 22.4477C131.259 22.2856 131.978 22.1573 132.701 22.0627C133.646 21.9411 134.413 21.8499 135.001 21.7891C135.595 21.7216 136.027 21.6101 136.298 21.4548C136.575 21.2994 136.713 21.0292 136.713 20.6442V20.5631C136.713 19.5634 136.439 18.7866 135.892 18.2327C135.352 17.6789 134.531 17.4019 133.43 17.4019C132.289 17.4019 131.394 17.6518 130.745 18.1517C130.097 18.6515 129.641 19.1852 129.377 19.7526L127.108 18.942C127.513 17.9963 128.053 17.2601 128.729 16.7332C129.411 16.1996 130.154 15.828 130.958 15.6186C131.769 15.4025 132.566 15.2944 133.349 15.2944C133.849 15.2944 134.423 15.3552 135.072 15.4768C135.727 15.5916 136.358 15.8314 136.966 16.1962C137.581 16.5609 138.091 17.1115 138.496 17.8477C138.902 18.584 139.104 19.5702 139.104 20.8063V31.0601H136.713V28.9526H136.591C136.429 29.2903 136.159 29.6517 135.781 30.0367C135.403 30.4217 134.899 30.7493 134.271 31.0195C133.643 31.2897 132.876 31.4248 131.971 31.4248ZM132.336 29.2768C133.282 29.2768 134.079 29.091 134.727 28.7195C135.382 28.348 135.875 27.8684 136.206 27.2808C136.544 26.6931 136.713 26.075 136.713 25.4266V23.238C136.612 23.3596 136.389 23.4711 136.044 23.5724C135.707 23.667 135.315 23.7514 134.869 23.8257C134.43 23.8932 134.001 23.954 133.582 24.0081C133.17 24.0554 132.836 24.0959 132.579 24.1297C131.958 24.2107 131.377 24.3424 130.836 24.5248C130.303 24.7004 129.87 24.9673 129.539 25.3253C129.215 25.6765 129.053 26.1561 129.053 26.764C129.053 27.5949 129.36 28.2231 129.975 28.6486C130.597 29.0674 131.384 29.2768 132.336 29.2768Z" fill="#FFFFFE"/>
<path fill-rule="evenodd" clip-rule="evenodd" d="M13.8929 0H17.5813C8.18823 2.18114 4.40148 11.1871 4.08182 20.4277L4.03264 32.8344C1.54913 30.4422 0 27.1353 0 23.5235V13.251C0 5.9571 6.24568 0 13.8929 0ZM40.5723 7.43464C41.0641 8.37277 41.4329 9.3578 41.6788 10.4132L23.5565 10.3428C13.1307 10.3194 10.8193 28.777 23.5565 28.8708L30.1465 28.9177C32.4333 29.293 32.4333 31.6148 30.0973 31.6148L12.2209 31.6852L12.2946 18.3404C13.4012 11.7735 16.942 7.34083 26.1138 7.36428L40.5723 7.43464ZM41.9985 17.9886V23.5235C41.9985 26.033 41.2362 28.3783 39.9576 30.3953C40.0805 25.7515 37.3265 20.9906 31.5726 20.8967L24.3434 20.8029C22.7943 20.7795 22.8926 18.0589 24.8106 18.0589L41.9985 17.9886Z" fill="#FFFFFE"/>
</svg>
